<?xml version="1.0" encoding="UTF-8"?> <svg xmlns="http://www.w3.org/2000/svg" xmlns:xlink="http://www.w3.org/1999/xlink" width="264" height="261" overflow="hidden"><defs><clipPath id="clip0"><rect x="870" y="181" width="264" height="261"></rect></clipPath><clipPath id="clip1"><rect x="870" y="182" width="260" height="259"></rect></clipPath><clipPath id="clip2"><rect x="870" y="182" width="260" height="259"></rect></clipPath><clipPath id="clip3"><rect x="870" y="182" width="260" height="259"></rect></clipPath></defs><g clip-path="url(#clip0)" transform="translate(-870 -181)"><g clip-path="url(#clip1)"><g clip-path="url(#clip2)"><g clip-path="url(#clip3)"><path d="M151.083 172.667 107.183 172.667C105.354 167.49 100.457 164.031 94.9667 164.033L86.3333 164.033 86.3333 116.55C86.3333 114.166 88.2661 112.233 90.65 112.233L149.313 112.233 190.408 153.328C192.121 154.795 194.674 154.696 196.269 153.103 197.863 151.507 197.962 148.955 196.495 147.241L161.487 112.233 202.883 112.233C205.267 112.233 207.2 114.166 207.2 116.55L207.2 157.904C207.2 160.288 209.133 162.221 211.517 162.221 213.901 162.221 215.833 160.288 215.833 157.904L215.833 116.55C215.833 109.398 210.035 103.6 202.883 103.6L90.65 103.6C83.4984 103.6 77.7 109.398 77.7 116.55L77.7 164.033 25.9 164.033C18.7484 164.033 12.95 169.832 12.95 176.983L12.95 224.467 4.31667 224.467C1.9328 224.467 0 226.399 0 228.783L0 233.1C0 242.635 7.73122 250.367 17.2667 250.367L103.6 250.367C113.135 250.367 120.867 242.635 120.867 233.1L120.867 228.783C120.867 226.399 118.934 224.467 116.55 224.467L107.917 224.467 107.917 198.567 125.183 198.567 117.414 208.926C116.432 210.235 116.274 211.985 117.005 213.447 117.737 214.91 119.231 215.833 120.867 215.833L146.767 215.833C149.151 215.833 151.083 213.901 151.083 211.517 151.083 209.133 149.151 207.2 146.767 207.2L129.5 207.2 135.975 198.567 146.767 198.567C149.151 198.567 151.083 196.634 151.083 194.25 151.083 191.866 149.151 189.933 146.767 189.933L107.917 189.933 107.917 181.3 151.083 181.3C153.467 181.3 155.4 179.367 155.4 176.983 155.4 174.599 153.467 172.667 151.083 172.667ZM103.6 241.733 17.2667 241.733C12.4989 241.733 8.63333 237.868 8.63333 233.1L112.233 233.1C112.233 237.868 108.368 241.733 103.6 241.733ZM21.5833 224.467 21.5833 176.983C21.5833 174.599 23.5161 172.667 25.9 172.667L58.6628 172.667 83.2687 197.315C84.078 198.132 85.1825 198.592 86.3333 198.592 87.4842 198.592 88.5886 198.132 89.398 197.315 90.2158 196.505 90.6753 195.401 90.6753 194.25 90.6753 193.099 90.2158 191.995 89.398 191.185L70.8372 172.667 94.9667 172.667C97.3505 172.667 99.2833 174.599 99.2833 176.983L99.2833 224.467Z" transform="matrix(1.00386 0 -0 1 874.333 182)"></path><path d="M146.767 224.467 133.817 224.467C131.433 224.467 129.5 226.399 129.5 228.783 129.5 231.167 131.433 233.1 133.817 233.1L146.767 233.1C149.151 233.1 151.083 231.167 151.083 228.783 151.083 226.399 149.151 224.467 146.767 224.467Z" transform="matrix(1.00386 0 -0 1 874.333 182)"></path><path d="M241.733 202.883 215.833 202.883 215.833 185.617C215.833 178.465 210.035 172.667 202.883 172.667L172.667 172.667C165.515 172.667 159.717 178.465 159.717 185.617L159.717 237.417C159.717 244.568 165.515 250.367 172.667 250.367L202.883 250.367C204.352 250.369 205.813 250.12 207.2 249.633L207.2 254.683C207.2 257.067 209.133 259 211.517 259 213.901 259 215.833 257.067 215.833 254.683L215.833 213.287 241.733 239.187 241.733 254.683C241.733 257.067 243.666 259 246.05 259 248.434 259 250.367 257.067 250.367 254.683L250.367 211.517C250.367 206.749 246.501 202.883 241.733 202.883ZM207.2 185.617 207.2 224.467 168.35 224.467 168.35 185.617C168.342 184.906 168.521 184.207 168.868 183.587L191.185 205.948C191.995 206.766 193.099 207.225 194.25 207.225 195.401 207.225 196.505 206.766 197.315 205.948 198.132 205.139 198.592 204.034 198.592 202.883 198.592 201.732 198.132 200.628 197.315 199.819L178.754 181.3 202.883 181.3C205.267 181.3 207.2 183.233 207.2 185.617ZM202.883 241.733 172.667 241.733C170.283 241.733 168.35 239.801 168.35 237.417L168.35 233.1 207.2 233.1 207.2 237.417C207.2 239.801 205.267 241.733 202.883 241.733ZM226.237 211.517 241.733 211.517 241.733 227.013Z" transform="matrix(1.00386 0 -0 1 874.333 182)"></path><path d="M91.1242 47.4833C90.827 48.5899 90.983 49.7702 91.5563 50.763L100.19 65.7006C100.752 66.6912 101.682 67.4205 102.78 67.7282 103.889 68.0023 105.061 67.8484 106.06 67.2962L112.233 63.713C113.599 64.6425 115.043 65.4519 116.55 66.1306L116.55 73.3833C116.55 75.7672 118.483 77.7 120.867 77.7L138.133 77.7C140.517 77.7 142.45 75.7672 142.45 73.3833L142.45 66.1306C143.957 65.4519 145.401 64.6425 146.767 63.713L153.069 67.3404C154.07 67.8926 155.24 68.0465 156.351 67.7725 157.447 67.4648 158.378 66.7355 158.939 65.7427L167.572 50.8073C168.148 49.8145 168.302 48.6342 168.004 47.5255 167.718 46.421 167.003 45.4746 166.019 44.8929L159.717 41.2676C159.717 40.4477 159.717 39.6699 159.717 38.85 159.717 38.0301 159.717 37.2523 159.717 36.4324L165.977 32.8071C166.919 32.219 167.6 31.2916 167.876 30.2167 168.173 29.1101 168.017 27.9298 167.444 26.937L158.81 11.9994C157.626 9.94435 155.004 9.23193 152.94 10.4038L146.767 13.987C145.401 13.0575 143.957 12.2481 142.45 11.5694L142.45 4.31667C142.45 1.9328 140.517 0 138.133 0L120.867 0C118.483 0 116.55 1.9328 116.55 4.31667L116.55 11.5694C115.043 12.2481 113.599 13.0575 112.233 13.987L106.06 10.3596C103.996 9.18767 101.374 9.9022 100.19 11.9573L91.5563 26.8927C90.983 27.8855 90.827 29.0658 91.1242 30.1745 91.413 31.279 92.1254 32.2253 93.1097 32.8071L99.3698 36.4324 99.3698 38.85 99.3698 41.2676 93.1097 44.8929C92.136 45.4641 91.4214 46.3936 91.1242 47.4833ZM108.391 42.7346C107.875 40.142 107.875 37.4715 108.391 34.879 108.768 33.0094 107.872 31.1146 106.19 30.2167L101.182 27.3248 105.499 19.8128 110.507 22.7489C112.094 23.6595 114.084 23.4698 115.471 22.2747 117.49 20.5653 119.8 19.2332 122.292 18.3458 123.959 17.7641 125.105 16.2254 125.183 14.4613L125.183 8.63333 133.817 8.63333 133.817 14.4613C133.823 16.2887 134.982 17.9159 136.708 18.5187 139.2 19.406 141.51 20.7381 143.529 22.4475 144.916 23.6405 146.906 23.8323 148.493 22.9218L153.501 19.9857 157.818 27.4977 152.81 30.2167C151.212 31.123 150.365 32.942 150.696 34.7483 151.212 37.343 151.212 40.0114 150.696 42.606 150.196 44.5241 151.069 46.537 152.81 47.4833L157.818 50.3752 153.501 57.8872 148.493 54.9511C146.906 54.0405 144.916 54.2302 143.529 55.4253 141.51 57.1347 139.2 58.4668 136.708 59.3542 134.982 59.957 133.823 61.5842 133.817 63.4116L133.817 69.0667 125.183 69.0667 125.183 63.2387C125.177 61.4113 124.018 59.7841 122.292 59.1813 119.8 58.294 117.49 56.9619 115.471 55.2525 114.084 54.0595 112.094 53.8677 110.507 54.7782L105.499 57.7143 101.182 50.2023 106.19 47.4833C107.858 46.5559 108.718 44.6421 108.304 42.7788Z" transform="matrix(1.00386 0 -0 1 874.333 182)"></path><path d="M129.5 51.8C136.652 51.8 142.45 46.0016 142.45 38.85 142.45 31.6984 136.652 25.9 129.5 25.9 122.348 25.9 116.55 31.6984 116.55 38.85 116.55 46.0016 122.348 51.8 129.5 51.8ZM129.5 34.5333C131.884 34.5333 133.817 36.4661 133.817 38.85 133.817 41.2339 131.884 43.1667 129.5 43.1667 127.116 43.1667 125.183 41.2339 125.183 38.85 125.183 36.4661 127.116 34.5333 129.5 34.5333Z" transform="matrix(1.00386 0 -0 1 874.333 182)"></path><path d="M46.7498 91.3835C47.8965 91.3898 48.9988 90.9409 49.8145 90.1315 50.6323 89.3221 51.0918 88.2177 51.0918 87.0668 51.0918 85.916 50.6323 84.8136 49.8145 84.0022 45.7655 79.9426 40.2664 77.6621 34.5333 77.6621 28.8003 77.6621 23.3011 79.9426 19.2522 84.0022 17.5596 85.6947 17.5596 88.439 19.2522 90.1315 20.9447 91.824 23.689 91.824 25.3815 90.1315 30.5118 85.2647 38.5549 85.2647 43.6852 90.1315 44.4988 90.9409 45.6011 91.3898 46.7498 91.3835Z" transform="matrix(1.00386 0 -0 1 874.333 182)"></path><path d="M13.165 77.915C24.9663 66.1137 44.1004 66.1137 55.9017 77.915 57.5837 79.5885 60.3027 79.5885 61.9867 77.915 63.6603 76.233 63.6603 73.514 61.9867 71.8299 46.8194 56.6794 22.2473 56.6794 7.07992 71.8299 5.61293 73.5414 5.712 76.096 7.30545 77.6895 8.90102 79.2829 11.4535 79.382 13.165 77.915Z" transform="matrix(1.00386 0 -0 1 874.333 182)"></path><path d="M38.85 99.2833C38.85 101.667 36.9172 103.6 34.5333 103.6 32.1495 103.6 30.2167 101.667 30.2167 99.2833 30.2167 96.8995 32.1495 94.9667 34.5333 94.9667 36.9172 94.9667 38.85 96.8995 38.85 99.2833Z" transform="matrix(1.00386 0 -0 1 874.333 182)"></path><path d="M34.5333 142.45C36.9172 142.45 38.85 140.517 38.85 138.133L38.85 116.55C38.85 114.166 36.9172 112.233 34.5333 112.233 32.1495 112.233 30.2167 114.166 30.2167 116.55L30.2167 138.133C30.2167 140.517 32.1495 142.45 34.5333 142.45Z" transform="matrix(1.00386 0 -0 1 874.333 182)"></path><path d="M176.983 43.1667 215.833 43.1667C222.985 43.1667 228.783 48.9651 228.783 56.1167L228.783 185.617C228.783 188.001 230.716 189.933 233.1 189.933 235.484 189.933 237.417 188.001 237.417 185.617L237.417 56.1167C237.417 44.1974 227.753 34.5333 215.833 34.5333L176.983 34.5333C174.599 34.5333 172.667 36.4661 172.667 38.85 172.667 41.2339 174.599 43.1667 176.983 43.1667Z" transform="matrix(1.00386 0 -0 1 874.333 182)"></path><path d="M175.04 68.5924 178.927 70.5337C180.392 71.2735 181.311 72.7784 181.3 74.4203L181.3 90.65C181.3 93.0339 183.233 94.9667 185.617 94.9667 188.001 94.9667 189.933 93.0339 189.933 90.65L189.933 74.4203C189.944 69.503 187.168 65.0029 182.767 62.8067L178.927 60.9076C177.54 60.0729 175.803 60.0856 174.427 60.9371 173.052 61.7886 172.268 63.3399 172.397 64.9523 172.528 66.5648 173.548 67.9706 175.04 68.5924Z" transform="matrix(1.00386 0 -0 1 874.333 182)"></path><path d="M34.5333 47.4833C36.9172 47.4833 38.85 45.5505 38.85 43.1667L38.85 30.2167C38.85 27.8328 40.7828 25.9 43.1667 25.9L73.3833 25.9C75.7672 25.9 77.7 23.9672 77.7 21.5833 77.7 19.1995 75.7672 17.2667 73.3833 17.2667L43.1667 17.2667C36.0151 17.2667 30.2167 23.0651 30.2167 30.2167L30.2167 43.1667C30.2167 45.5505 32.1495 47.4833 34.5333 47.4833Z" transform="matrix(1.00386 0 -0 1 874.333 182)"></path></g></g></g></g></svg> 