<?xml version="1.0" standalone="no"?>
<!DOCTYPE svg PUBLIC "-//W3C//DTD SVG 20010904//EN"
 "http://www.w3.org/TR/2001/REC-SVG-20010904/DTD/svg10.dtd">
<svg version="1.0" xmlns="http://www.w3.org/2000/svg"
 width="512.000000pt" height="512.000000pt" viewBox="0 0 512.000000 512.000000"
 preserveAspectRatio="xMidYMid meet">
<metadata>
Created by potrace 1.16, written by Peter Selinger 2001-2019
</metadata>
<g transform="translate(0.000000,512.000000) scale(0.100000,-0.100000)"
fill="#000000" stroke="none">
<path d="M1289 4176 c-657 -238 -1204 -438 -1215 -444 -48 -26 -68 -61 -72
-125 -4 -71 17 -116 66 -141 25 -13 889 -336 898 -336 2 0 4 -232 4 -515 0
-423 3 -521 14 -543 20 -38 129 -140 205 -191 82 -56 262 -142 376 -179 356
-118 861 -158 1335 -106 438 48 799 184 1024 385 100 90 96 58 96 636 l0 501
43 16 c167 62 292 106 299 106 4 0 8 -278 8 -618 l0 -617 -195 -195 c-108
-107 -205 -210 -217 -228 -23 -38 -27 -115 -8 -153 7 -13 104 -116 216 -229
l203 -205 3 -185 c3 -164 5 -189 23 -219 29 -49 67 -73 122 -78 59 -5 108 18
140 66 22 32 23 43 23 220 l0 186 191 190 c240 238 249 251 249 325 0 74 -9
87 -249 325 l-191 190 0 671 0 672 123 42 c153 54 200 80 221 124 33 70 12
162 -46 200 -42 28 -2427 886 -2461 886 -17 0 -570 -196 -1228 -434z m2017
-172 c434 -157 859 -310 944 -341 85 -31 158 -58 162 -62 4 -4 -227 -91 -515
-195 -287 -103 -722 -260 -966 -348 l-443 -160 -939 348 c-516 191 -937 349
-935 351 2 2 430 159 952 348 522 189 950 344 950 344 1 1 356 -128 790 -285z
m-1429 -1213 c381 -140 585 -211 610 -211 26 0 244 74 631 213 l592 214 0
-401 0 -401 -58 -42 c-115 -85 -311 -166 -512 -212 -466 -108 -1091 -83 -1504
59 -142 49 -210 82 -293 144 l-63 46 0 406 c0 321 3 405 13 402 6 -3 269 -100
584 -217z m2763 -1186 l105 -105 -108 -108 -107 -107 -107 107 -108 108 105
105 c58 58 107 105 110 105 3 0 52 -47 110 -105z"/>
</g>
</svg>
