<?xml version="1.0" standalone="no"?>
<!DOCTYPE svg PUBLIC "-//W3C//DTD SVG 20010904//EN"
 "http://www.w3.org/TR/2001/REC-SVG-20010904/DTD/svg10.dtd">
<svg version="1.0" xmlns="http://www.w3.org/2000/svg"
 width="512.000000pt" height="512.000000pt" viewBox="0 0 512.000000 512.000000"
 preserveAspectRatio="xMidYMid meet">
<metadata>
Created by potrace 1.16, written by Peter Selinger 2001-2019
</metadata>
<g transform="translate(0.000000,512.000000) scale(0.100000,-0.100000)"
fill="#000000" stroke="none">
<path d="M1492 4797 c-21 -22 -22 -33 -24 -251 l-3 -229 -85 -32 c-47 -17
-103 -41 -125 -52 l-40 -21 -161 159 c-219 216 -186 218 -429 -28 -166 -170
-184 -191 -185 -222 0 -31 15 -50 160 -196 l161 -162 -34 -74 c-19 -42 -42
-99 -51 -127 l-18 -52 -212 0 c-228 0 -266 -6 -285 -46 -7 -17 -11 -111 -11
-280 l0 -255 25 -24 24 -25 230 0 229 0 17 -52 c9 -29 33 -88 53 -131 l35 -78
-161 -163 c-146 -146 -162 -166 -162 -196 0 -31 18 -52 188 -222 170 -170 191
-188 222 -188 30 0 50 16 196 162 l163 161 78 -35 c43 -20 102 -44 131 -53
l52 -17 0 -228 c0 -209 2 -230 19 -251 l19 -24 271 0 c268 0 271 0 293 23 22
22 23 30 28 254 l5 231 55 18 c30 10 86 33 123 51 l68 32 152 -151 c84 -83
162 -156 175 -163 47 -23 73 -4 260 184 238 238 236 204 21 421 l-160 163 34
68 c19 38 43 95 53 127 l18 57 228 0 229 0 24 25 25 24 0 263 c-1 283 -1 288
-54 308 -16 6 -117 10 -241 10 l-213 0 -23 68 c-12 37 -35 93 -51 126 l-30 59
161 161 c216 218 218 183 -22 423 -240 240 -206 238 -423 22 l-161 -161 -59
30 c-32 16 -89 40 -126 53 l-68 24 0 212 c0 122 -4 223 -10 239 -20 53 -25 53
-311 54 -264 0 -266 0 -287 -23z m438 -355 c0 -177 3 -222 15 -239 10 -14 48
-32 118 -53 56 -17 143 -54 194 -81 50 -27 102 -49 114 -49 16 0 71 48 181
157 l158 157 105 -104 105 -104 -149 -151 c-96 -96 -152 -160 -157 -179 -5
-23 2 -47 41 -122 27 -52 65 -142 84 -201 29 -86 41 -110 61 -120 18 -9 88
-13 238 -13 l212 0 0 -150 0 -150 -223 0 c-219 0 -224 0 -244 -22 -12 -13 -26
-43 -33 -68 -20 -78 -50 -152 -96 -237 -24 -46 -44 -95 -44 -110 0 -21 32 -59
155 -183 l155 -156 -105 -104 -105 -104 -153 152 c-129 128 -158 152 -183 152
-17 0 -78 -24 -135 -53 -58 -30 -141 -63 -185 -75 -126 -34 -124 -29 -124
-288 l0 -214 -150 0 -150 0 0 218 c0 258 4 249 -125 284 -43 12 -126 45 -183
75 -58 29 -117 53 -134 53 -26 0 -54 -23 -184 -152 l-155 -152 -104 104 -105
104 155 156 c123 124 155 162 155 183 0 15 -21 66 -47 113 -25 48 -60 131 -78
185 -47 150 -25 139 -290 139 l-225 0 0 149 0 150 224 3 c257 3 256 3 276 91
16 67 73 206 106 259 15 23 29 59 31 80 6 38 4 39 -150 196 l-157 158 105 104
105 105 153 -152 c90 -90 163 -154 178 -158 21 -5 50 5 123 44 53 28 141 64
196 81 67 21 105 39 115 53 12 17 15 62 15 239 l0 218 150 0 150 0 0 -218z"/>
<path d="M1633 4036 c-101 -19 -167 -42 -251 -87 -315 -167 -487 -489 -451
-846 38 -370 314 -675 678 -748 112 -23 304 -16 409 14 299 87 529 332 598
637 22 99 22 272 1 370 -68 313 -310 564 -622 644 -103 27 -267 34 -362 16z
m301 -171 c39 -8 108 -34 155 -57 116 -57 249 -187 304 -298 100 -201 103
-424 8 -615 -90 -180 -227 -299 -416 -362 -70 -23 -96 -27 -205 -27 -107 1
-136 4 -203 26 -280 93 -468 337 -484 628 -7 124 13 218 71 335 118 238 348
383 611 384 50 0 121 -6 159 -14z"/>
<path d="M1695 3810 c-135 -19 -251 -77 -351 -175 -122 -121 -184 -267 -184
-437 0 -109 13 -174 55 -265 81 -175 225 -296 413 -344 146 -37 286 -22 429
47 215 103 343 309 343 550 0 121 -13 181 -62 283 -112 235 -380 377 -643 341z
m200 -175 c226 -59 378 -293 336 -519 -41 -219 -226 -376 -447 -378 -280 -3
-499 249 -455 522 43 265 309 441 566 375z"/>
<path d="M3545 2653 c-11 -3 -30 -14 -42 -26 -23 -20 -23 -21 -23 -343 l0
-323 -210 -3 c-203 -3 -210 -4 -232 -26 -23 -22 -23 -25 -26 -347 l-3 -325
-1282 -2 -1282 -3 -67 -32 c-113 -53 -191 -151 -217 -271 -16 -77 -14 -267 4
-336 40 -153 162 -262 320 -286 48 -7 704 -10 2115 -8 1792 3 2050 5 2085 18
146 55 238 160 265 299 13 72 13 247 -1 313 -33 157 -173 286 -328 305 l-51 6
0 322 c0 394 9 368 -134 373 l-96 4 0 318 0 319 -24 28 -24 28 -364 2 c-199 0
-372 -1 -383 -4z m635 -428 l0 -265 -270 0 -270 0 0 265 0 265 270 0 270 0 0
-265z m-470 -700 l0 -265 -265 0 -265 0 0 265 0 265 265 0 265 0 0 -265z m700
0 l0 -265 -265 0 -265 0 0 265 0 265 265 0 265 0 0 -265z m250 -451 c90 -43
128 -108 137 -238 11 -170 -29 -270 -129 -320 l-52 -26 -2061 0 -2061 0 -52
26 c-99 49 -139 147 -129 315 10 154 64 230 184 258 22 5 903 8 2078 8 l2040
-2 45 -21z"/>
<path d="M927 1016 c-59 -22 -103 -61 -131 -118 -44 -88 -32 -184 33 -259 46
-54 100 -79 176 -79 137 0 234 96 235 233 0 93 -44 168 -123 209 -52 26 -140
33 -190 14z m133 -183 c52 -66 -37 -150 -98 -93 -26 25 -29 76 -5 102 25 28
77 24 103 -9z"/>
<path d="M1701 1016 c-43 -15 -107 -69 -126 -106 -62 -121 -20 -266 95 -327
39 -21 56 -24 122 -21 66 3 82 7 120 33 54 38 83 81 98 144 43 179 -137 340
-309 277z m129 -176 c41 -41 7 -120 -52 -120 -26 0 -68 44 -68 73 0 57 79 88
120 47z"/>
<path d="M2490 1021 c-106 -32 -170 -119 -170 -231 0 -132 99 -229 233 -230
136 0 236 97 237 230 0 158 -153 275 -300 231z m112 -178 c24 -28 29 -53 16
-76 -32 -62 -94 -62 -126 0 -22 41 14 93 63 93 18 0 38 -8 47 -17z"/>
<path d="M3244 1014 c-48 -17 -105 -71 -131 -123 -25 -51 -23 -154 4 -206 45
-85 113 -125 215 -125 135 0 230 94 230 228 1 170 -158 283 -318 226z m136
-176 c11 -12 20 -32 20 -45 0 -29 -42 -73 -68 -73 -33 0 -72 38 -72 71 0 62
78 92 120 47z"/>
<path d="M4026 1015 c-88 -31 -147 -103 -154 -189 -6 -75 3 -115 39 -169 58
-88 194 -124 295 -78 87 40 143 142 131 242 -18 150 -169 245 -311 194z m122
-171 c47 -33 14 -124 -45 -124 -29 0 -73 42 -73 68 0 11 9 31 21 46 24 30 63
34 97 10z"/>
</g>
</svg>
